<?xml version="1.0" standalone="no"?>
<!DOCTYPE svg PUBLIC "-//W3C//DTD SVG 20010904//EN"
 "http://www.w3.org/TR/2001/REC-SVG-20010904/DTD/svg10.dtd">
<svg version="1.0" xmlns="http://www.w3.org/2000/svg"
 width="256.000000pt" height="256.000000pt" viewBox="0 0 256.000000 256.000000"
 preserveAspectRatio="xMidYMid meet">

<g transform="translate(0.000000,256.000000) scale(0.100000,-0.100000)"
fill="red" stroke="none">
<path d="M350 1260 l0 -930 930 0 930 0 0 930 0 930 -930 0 -930 0 0 -930z
m1301 881 c24 -19 24 -22 27 -240 l3 -221 212 0 c222 -1 232 -2 255 -47 16
-30 17 -662 1 -696 -19 -42 -47 -47 -264 -47 l-204 0 -3 -216 -3 -216 -28 -24
-28 -24 -340 0 -341 0 -29 29 -29 29 0 211 0 211 -205 0 c-217 0 -245 5 -264
47 -16 34 -15 666 1 696 23 45 33 46 255 47 l212 0 3 221 c3 218 3 221 27 240
22 18 44 19 371 19 327 0 349 -1 371 -19z"/>
<path d="M1052 2019 c-16 -6 -22 -17 -22 -37 0 -35 20 -55 51 -50 29 4 43 29
36 60 -8 29 -32 39 -65 27z"/>
<path d="M1180 2010 c-24 -24 -25 -43 -4 -64 18 -19 55 -21 72 -4 19 19 14 55
-10 72 -29 20 -34 20 -58 -4z"/>
<path d="M1320 2012 c-18 -14 -21 -25 -16 -45 8 -35 49 -46 76 -22 25 23 25
40 0 65 -25 25 -32 25 -60 2z m50 -51 c0 -12 -20 -25 -27 -18 -7 7 6 27 18 27
5 0 9 -4 9 -9z"/>
<path d="M1462 2014 c-23 -16 -30 -58 -12 -69 6 -3 10 1 10 10 0 24 29 29 51
9 21 -18 21 -18 17 10 -1 16 -12 35 -23 42 -18 12 -24 11 -43 -2z"/>
<path d="M1042 1878 c-20 -20 -14 -66 9 -79 34 -18 69 3 69 40 0 43 -50 67
-78 39z"/>
<path d="M1177 1872 c-10 -10 -17 -24 -17 -30 0 -16 37 -52 53 -52 8 0 8 3 -2
9 -8 5 -11 16 -8 25 9 23 27 20 27 -5 0 -18 2 -19 15 -9 19 16 19 44 -1 64
-21 21 -47 20 -67 -2z"/>
<path d="M1317 1872 c-17 -19 -22 -44 -11 -55 4 -3 14 3 23 15 15 17 21 19 39
9 29 -16 38 3 12 29 -25 25 -42 25 -63 2z"/>
<path d="M1463 1879 c-17 -6 -23 -16 -22 -36 0 -15 3 -22 6 -15 2 7 13 17 23
22 15 8 24 5 40 -12 l22 -23 -4 29 c-3 33 -31 48 -65 35z"/>
<path d="M529 1499 c-14 -27 1 -64 30 -72 44 -11 81 49 49 81 -20 20 -66 14
-79 -9z"/>
<path d="M672 1508 c-15 -15 -15 -51 0 -66 7 -7 25 -12 40 -12 36 0 56 36 39
69 -13 23 -59 29 -79 9z"/>
<path d="M1810 1500 c-14 -26 -5 -57 21 -71 43 -23 92 44 57 79 -20 20 -66 15
-78 -8z"/>
<path d="M1952 1508 c-32 -32 5 -92 49 -81 29 8 44 45 30 72 -13 23 -59 29
-79 9z"/>
<path d="M1107 1469 c-46 -28 -61 -142 -28 -207 21 -42 95 -115 159 -157 l42
-28 55 37 c63 44 141 125 155 161 24 64 3 172 -38 194 -46 25 -140 -2 -156
-45 -4 -11 -12 -8 -34 17 -24 27 -37 33 -83 36 -30 2 -62 -2 -72 -8z"/>
<path d="M553 1379 c-39 -14 -41 -72 -2 -84 29 -10 58 4 65 30 10 40 -24 69
-63 54z"/>
<path d="M681 1373 c-25 -17 -27 -46 -5 -67 23 -23 51 -20 69 8 30 45 -20 91
-64 59z m49 -52 c0 -12 -20 -25 -27 -18 -7 7 6 27 18 27 5 0 9 -4 9 -9z"/>
<path d="M1820 1370 c-24 -24 -25 -43 -4 -64 18 -19 55 -21 72 -4 19 19 14 55
-10 72 -29 20 -34 20 -58 -4z"/>
<path d="M1961 1373 c-23 -16 -28 -52 -9 -71 18 -18 53 -14 73 8 37 40 -19 95
-64 63z"/>
<path d="M534 1229 c-17 -19 -17 -23 -3 -47 18 -33 44 -39 70 -16 23 21 24 47
3 68 -21 22 -47 20 -70 -5z m56 -49 c0 -11 -7 -20 -15 -20 -15 0 -21 21 -8 33
12 13 23 7 23 -13z"/>
<path d="M676 1234 c-16 -15 -21 -45 -10 -56 3 -4 15 3 26 14 21 21 34 16 40
-17 4 -19 5 -19 17 3 26 48 -35 94 -73 56z"/>
<path d="M1817 1232 c-22 -24 -21 -45 1 -65 23 -21 46 -22 66 -1 30 30 9 84
-33 84 -10 0 -25 -8 -34 -18z"/>
<path d="M1956 1234 c-22 -21 -20 -47 4 -69 41 -37 102 24 64 66 -21 23 -47
24 -68 3z m54 -53 c0 -14 -18 -23 -30 -16 -6 4 -8 11 -5 16 8 12 35 12 35 0z"/>
<path d="M536 1094 c-18 -17 -19 -24 -10 -48 8 -22 21 -20 27 4 7 27 36 25 46
-2 l8 -23 7 22 c16 50 -41 84 -78 47z"/>
<path d="M670 1095 c-8 -9 -10 -25 -5 -42 7 -27 8 -27 15 -7 5 12 13 25 18 28
12 7 42 -20 42 -37 0 -7 5 -4 11 6 25 43 -49 90 -81 52z"/>
<path d="M1816 1094 c-30 -29 -10 -74 32 -74 33 0 52 16 52 45 0 43 -53 61
-84 29z m54 -55 c0 -5 -7 -9 -15 -9 -15 0 -20 12 -9 23 8 8 24 -1 24 -14z"/>
<path d="M1952 1098 c-22 -22 -8 -78 19 -78 4 0 5 9 2 20 -4 14 0 20 10 20 22
0 32 -20 16 -31 -9 -6 -10 -9 -2 -9 16 0 43 28 43 45 0 36 -62 59 -88 33z"/>
<path d="M1048 738 c-24 -20 -28 -44 -12 -67 17 -23 53 -28 72 -9 19 19 15 66
-7 78 -25 13 -34 13 -53 -2z"/>
<path d="M1180 732 c-31 -25 -21 -69 17 -78 51 -13 82 38 47 77 -21 24 -36 24
-64 1z"/>
<path d="M1322 734 c-24 -17 -29 -53 -10 -72 27 -27 88 -3 88 34 0 15 -35 54
-48 54 -4 0 -18 -7 -30 -16z"/>
<path d="M1468 742 c-22 -4 -35 -49 -21 -71 6 -9 23 -16 38 -16 34 0 50 23 42
57 -7 26 -28 37 -59 30z m28 -79 c-10 -10 -19 5 -10 18 6 11 8 11 12 0 2 -7 1
-15 -2 -18z"/>
<path d="M1042 598 c-20 -20 -14 -66 9 -79 33 -17 69 3 69 39 0 33 -16 52 -45
52 -12 0 -26 -5 -33 -12z"/>
<path d="M1177 592 c-23 -25 -21 -48 5 -66 28 -20 43 -20 62 0 22 21 20 61 -3
74 -28 15 -46 12 -64 -8z"/>
<path d="M1316 594 c-23 -23 -20 -51 8 -69 46 -31 97 25 60 66 -21 23 -47 24
-68 3z m54 -53 c0 -14 -18 -23 -30 -16 -6 4 -8 11 -5 16 8 12 35 12 35 0z"/>
<path d="M1456 597 c-12 -9 -17 -23 -14 -42 4 -33 28 -47 28 -16 0 12 6 21 15
21 9 0 15 -9 15 -21 0 -31 24 -17 28 16 4 29 -17 55 -43 55 -6 0 -19 -6 -29
-13z"/>
</g>
</svg>
